Patient4_TMGait_0pt4_02_right_19_GRF.mot
version=1
nRows=58
nColumns=19
inDegrees=no
endheader
time	F1x	F1y	F1z	M1x	M1y	M1z	F2x	F2y	F2z	M2x	M2y	M2z	EC1x	EC1y	EC1z	EC2x	EC2y	EC2z
24.8	-27.559	782.9732	85.3389	-254.0318	-97.6316	852.214	4.7191	-11.5544	5.8227	-4.6015	-5.2072	-14.263	-0.0592	0.0182	-0.0073	-0.0462	0.0165	0.9585
24.8134	-18.1843	766.5294	81.8435	-248.9506	-90.9983	834.6206	2.9697	-6.954	3.8654	-2.8272	-3.3694	-8.5267	-0.0592	0.0182	-0.0073	-0.0462	0.0165	0.9585
24.8269	-9.6006	749.8182	78.1014	-243.7946	-84.2373	815.6535	1.4987	-3.1152	2.2021	-1.3293	-1.8106	-3.7574	-0.0592	0.0182	-0.0073	-0.0462	0.0165	0.9585
24.8403	-2.2331	734.3854	74.2891	-239.0961	-77.6697	796.9601	0.38555	-0.22292	0.93879	-0.18717	-0.62847	-0.18194	-0.0592	0.0182	-0.0073	-0.0462	0.0165	0.9585
24.8537	3.877	721.5548	70.5869	-235.3134	-71.5096	780.0889	-0.39722	1.7727	0.062899	0.61009	0.19734	2.27	-0.0592	0.0182	-0.0073	-0.0462	0.0165	0.9585
24.8671	8.9041	712.3369	67.1051	-232.7869	-65.8427	766.3055	-0.87649	3.0036	-0.47836	1.1109	0.71295	3.7529	-0.0592	0.0182	-0.0073	-0.0462	0.0165	0.9585
24.8806	13.0858	707.3311	64.0087	-231.7005	-60.7827	756.4524	-1.1491	3.633	-0.76883	1.3741	1.0061	4.4911	-0.0592	0.0182	-0.0073	-0.0462	0.0165	0.9585
24.894	16.656	706.7084	61.3973	-232.0846	-56.3835	750.9026	-1.2849	3.7956	-0.8788	1.4508	1.1437	4.6593	-0.0592	0.0182	-0.0073	-0.0462	0.0165	0.9585
24.9074	19.7861	710.2455	59.3822	-233.8299	-52.7225	749.5908	-1.339	3.5904	-0.88709	1.3781	1.1964	4.3822	-0.0592	0.0182	-0.0073	-0.0462	0.0165	0.9585
24.9209	22.6317	717.3812	57.9857	-236.7179	-49.7916	752.0489	-1.3744	3.0711	-0.83851	1.1765	1.2077	3.7308	-0.0592	0.0182	-0.0073	-0.0462	0.0165	0.9585
24.9343	25.3035	727.2661	57.2083	-240.4359	-47.5663	757.485	-1.4059	2.218	-0.77154	0.84426	1.2067	2.6761	-0.0592	0.0182	-0.0073	-0.0462	0.0165	0.9585
24.9477	27.8952	738.8265	56.9979	-244.6041	-45.9738	764.8275	-1.4504	1.0178	-0.70437	0.37788	1.2047	1.205	-0.0592	0.0182	-0.0073	-0.0462	0.0165	0.9585
24.9611	30.467	750.9054	57.2953	-248.8191	-44.9449	772.9085	-1.4702	-0.56311	-0.65259	-0.23079	1.1962	-0.73271	-0.0592	0.0182	-0.0073	-0.0462	0.0165	0.9585
24.9746	33.0267	762.3853	57.994	-252.6976	-44.3726	780.6133	-1.4221	-2.5025	-0.60762	-0.97204	1.1541	-3.1056	-0.0592	0.0182	-0.0073	-0.0462	0.0165	0.9585
24.988	35.5514	772.2405	58.9946	-255.894	-44.165	786.9258	-1.2209	-4.6641	-0.55685	-1.7945	1.0328	-5.751	-0.0592	0.0182	-0.0073	-0.0462	0.0165	0.9585
25.0014	37.9573	779.5516	60.199	-258.0984	-44.2489	790.9505	-0.74231	-6.7342	-0.47816	-2.5777	0.76418	-8.2987	-0.0592	0.0182	-0.0073	-0.0462	0.0165	0.9585
25.0149	40.1852	783.5333	61.5451	-259.0424	-44.5815	791.9237	0.11748	-8.1394	-0.33389	-3.1015	0.26638	-10.0404	-0.0592	0.0182	-0.0073	-0.0462	0.0165	0.9585
25.0283	42.168	783.6444	62.9711	-258.5444	-45.1144	789.3378	1.4924	-7.9857	-0.08496	-3.0225	-0.55278	-9.8787	-0.0592	0.0182	-0.0073	-0.0462	0.0165	0.9585
25.0417	43.8919	779.7233	64.4292	-256.557	-45.8007	783.0433	3.4729	-4.9767	0.30722	-1.8493	-1.7691	-6.2152	-0.0592	0.0182	-0.0073	-0.0462	0.0165	0.9585
25.0551	45.3914	771.9823	65.8516	-253.1666	-46.5619	773.243	6.0606	2.5263	0.87084	1.0407	-3.4115	2.9585	-0.0592	0.0182	-0.0073	-0.0462	0.0165	0.9585
25.0686	46.7025	760.86	67.1674	-248.5423	-47.3195	760.3863	9.0968	16.4066	1.6193	6.3604	-5.4267	19.9463	-0.0592	0.0182	-0.0073	-0.0462	0.0165	0.9585
25.082	47.8514	746.7868	68.2457	-242.8639	-47.9442	744.909	12.1695	38.527	2.5079	14.8089	-7.5956	47.0294	-0.0592	0.0182	-0.0073	-0.0462	0.0165	0.9585
25.0954	48.7705	729.977	68.9204	-236.2484	-48.3001	727.0488	14.5121	70.1572	3.4202	26.8609	-9.4771	85.7577	-0.0592	0.0182	-0.0073	-0.0462	0.0165	0.9585
25.1089	49.3532	710.253	68.9554	-228.6939	-48.1992	706.6443	14.8731	111.175	4.1275	42.458	-10.32	135.9994	-0.0592	0.0182	-0.0073	-0.0462	0.0165	0.9585
25.1223	49.4436	687.0787	68.1061	-220.087	-47.4559	683.1729	11.6766	159.0731	4.2537	60.6361	-9.0882	194.7134	-0.0592	0.0182	-0.0073	-0.0462	0.0165	0.9585
25.1357	48.9114	659.8738	66.1502	-210.3022	-45.8961	656.0372	4.4971	209.0483	3.2341	79.5357	-4.9742	256.1031	-0.0592	0.0182	-0.0073	-0.0462	0.0165	0.9585
25.1491	47.718	628.413	63.0135	-199.3259	-43.4512	624.9349	-4.7291	255.5555	0.80726	97.0139	1.5675	313.3361	-0.0592	0.0182	-0.0073	-0.0462	0.0165	0.9585
25.1626	45.925	592.9596	58.8222	-187.288	-40.2121	590.0222	-13.6844	294.2029	-2.7937	111.4147	9.3419	360.7866	-0.0592	0.0182	-0.0073	-0.0462	0.0165	0.9585
25.176	43.6771	554.0806	53.8687	-174.3926	-36.3977	551.7344	-21.2586	324.2358	-7.0322	122.4721	17.2768	397.382	-0.0592	0.0182	-0.0073	-0.0462	0.0165	0.9585
25.1894	41.0849	512.4579	48.4871	-160.8519	-32.2818	510.6739	-27.2093	348.2366	-11.3549	131.1908	24.6566	426.2423	-0.0592	0.0182	-0.0073	-0.0462	0.0165	0.9585
25.2029	38.2235	468.7292	42.9325	-146.8486	-28.0778	467.4642	-31.8028	370.0626	-15.4239	139.0551	31.2002	452.1125	-0.0592	0.0182	-0.0073	-0.0462	0.0165	0.9585
25.2163	35.1309	423.4974	37.3505	-132.5409	-23.9082	422.7065	-35.26	393.1951	-19.0888	147.4022	36.8529	479.198	-0.0592	0.0182	-0.0073	-0.0462	0.0165	0.9585
25.2297	31.7634	377.3194	31.8158	-118.0603	-19.8539	376.974	-37.7086	420.1264	-22.5077	157.1635	41.8682	510.472	-0.0592	0.0182	-0.0073	-0.0462	0.0165	0.9585
25.2431	28.034	330.647	26.4589	-103.5018	-16.0621	330.7213	-39.2643	452.2225	-25.9968	168.8148	46.6708	547.5581	-0.0592	0.0182	-0.0073	-0.0462	0.0165	0.9585
25.2566	23.8177	284.0173	21.4237	-88.9851	-12.7077	284.4935	-40.0853	489.6362	-29.9219	182.3604	51.7401	590.6611	-0.0592	0.0182	-0.0073	-0.0462	0.0165	0.9585
25.27	19.0481	238.1694	16.9079	-74.7019	-9.9995	239.0199	-40.4345	531.2887	-34.5845	197.3384	57.4953	638.5549	-0.0592	0.0182	-0.0073	-0.0462	0.0165	0.9585
25.2834	13.7855	194.1316	13.046	-60.9534	-8.0534	195.3091	-40.5863	575.2146	-40.141	212.9714	64.1825	688.9314	-0.0592	0.0182	-0.0073	-0.0462	0.0165	0.9585
25.2969	8.2753	153.1773	9.9191	-48.1329	-6.8733	154.6094	-40.7745	619.2932	-46.5191	228.4505	71.7654	739.2945	-0.0592	0.0182	-0.0073	-0.0462	0.0165	0.9585
25.3103	2.9995	116.5397	7.5062	-36.6359	-6.2908	118.0994	-41.0688	661.6587	-53.3401	243.1044	79.8137	787.4168	-0.0592	0.0182	-0.0073	-0.0462	0.0165	0.9585
25.3237	-1.5429	85.0624	5.7007	-26.7417	-6.0426	86.6202	-41.4024	700.7161	-60.106	256.3881	87.7165	831.3882	-0.0592	0.0182	-0.0073	-0.0462	0.0165	0.9585
25.3371	-4.9226	59.0447	4.3311	-18.5619	-5.8266	60.4717	-41.6142	735.0495	-66.3075	267.8321	94.8317	869.5228	-0.0592	0.0182	-0.0073	-0.0462	0.0165	0.9585
25.3506	-6.8942	38.3539	3.2494	-12.0624	-5.4252	39.5619	-41.5531	763.4117	-71.5773	277.0301	100.685	900.3671	-0.0592	0.0182	-0.0073	-0.0462	0.0165	0.9585
25.364	-7.4225	22.6021	2.3429	-7.1227	-4.7219	23.5493	-41.1489	784.8445	-75.661	283.6775	104.971	922.8554	-0.0592	0.0182	-0.0073	-0.0462	0.0165	0.9585
25.3774	-6.7326	11.2805	1.5742	-3.5814	-3.7609	11.9569	-40.3687	798.7493	-78.455	287.5959	107.577	936.3657	-0.0592	0.0182	-0.0073	-0.0462	0.0165	0.9585
25.3909	-5.4094	3.8479	0.95946	-1.2621	-2.7456	4.2922	-39.2449	804.9946	-79.9455	288.7777	108.5201	940.8302	-0.0592	0.0182	-0.0073	-0.0462	0.0165	0.9585
25.4043	-3.9099	-0.46271	0.52813	0.077477	-1.854	-0.19337	-37.8363	804.0564	-80.2135	287.4396	107.9373	936.8796	-0.0592	0.0182	-0.0073	-0.0462	0.0165	0.9585
25.4177	-2.5453	-2.4888	0.2487	0.70189	-1.1519	-2.3126	-36.2066	797.13	-79.3857	284.0557	106.0273	925.9592	-0.0592	0.0182	-0.0073	-0.0462	0.0165	0.9585
25.4311	-1.4326	-3.0058	0.096278	0.8545	-0.65251	-2.8724	-34.4286	785.9667	-77.6593	279.298	103.0633	910.1339	-0.0592	0.0182	-0.0073	-0.0462	0.0165	0.9585
25.4446	-0.61816	-2.6327	0.024972	0.7291	-0.32367	-2.5029	-32.5945	772.6157	-75.2487	273.9422	99.3423	891.7861	-0.0592	0.0182	-0.0073	-0.0462	0.0165	0.9585
25.458	-0.08268	-1.8239	0.012111	0.46939	-0.1365	-1.6633	-30.7847	759.1706	-72.3967	268.7675	95.1825	873.3212	-0.0592	0.0182	-0.0073	-0.0462	0.0165	0.9585
25.4714	0.23854	-0.88336	0.022747	0.17165	-0.038585	-0.68541	-29.0626	747.5267	-69.3426	264.4631	90.8887	856.882	-0.0592	0.0182	-0.0073	-0.0462	0.0165	0.9585
25.4849	0.3858	0.023784	0.04583	-0.10922	-0.0058005	0.25995	-27.4713	739.1306	-66.321	261.5388	86.7425	844.0823	-0.0592	0.0182	-0.0073	-0.0462	0.0165	0.9585
25.4983	0.43784	0.80189	0.060752	-0.34562	0.0045152	1.0543	-26.0397	734.8494	-63.515	260.2834	82.9524	835.8661	-0.0592	0.0182	-0.0073	-0.0462	0.0165	0.9585
25.5117	0.41834	1.4182	0.073178	-0.52912	-0.0034046	1.6796	-24.7561	734.9567	-61.0561	260.7614	79.644	832.4959	-0.0592	0.0182	-0.0073	-0.0462	0.0165	0.9585
25.5251	0.36326	1.8682	0.073473	-0.66232	-0.010923	2.1354	-23.5564	739.1337	-59.0073	262.817	76.8492	833.5654	-0.0592	0.0182	-0.0073	-0.0462	0.0165	0.9585
25.5386	0.28728	2.1579	0.077317	-0.74857	-0.027981	2.4372	-22.3802	746.5061	-57.3936	266.09	74.5509	838.0661	-0.0592	0.0182	-0.0073	-0.0462	0.0165	0.9585
25.552	0.19433	2.3014	0.078309	-0.79288	-0.05221	2.6087	-21.15	755.7986	-56.2074	270.0742	72.6926	844.563	-0.0592	0.0182	-0.0073	-0.0462	0.0165	0.9585
25.5654	0.097282	2.2925	0.088943	-0.78995	-0.095234	2.6148	-19.7997	765.5604	-55.4029	274.2045	71.1834	851.4565	-0.0592	0.0182	-0.0073	-0.0462	0.0165	0.9585
